<svg xmlns="http://www.w3.org/2000/svg" xmlns:xlink="http://www.w3.org/1999/xlink" width="24" height="24" viewBox="0 0 24 24">
    <defs>
        <path id="inczkca1pa" d="M19.12 2.625c.995 0 1.81.773 1.876 1.75l.004.13v9.89c0 .994-.773 1.808-1.75 1.874l-.13.004h-4.252v2.67c0 .952-.707 1.738-1.624 1.863l-.126.012-.129.005h-8.11c-.994 0-1.809-.773-1.875-1.75L3 18.942v-9.89c0-.994.773-1.808 1.75-1.874l.13-.005H9.13v-2.67c0-.951.708-1.737 1.625-1.862l.126-.013.129-.004h8.11zM9.132 8.757H4.978c-.248 0-.454.183-.49.421l-.004.073v9.495c0 .248.182.454.42.489l.074.005h7.912c.248 0 .454-.183.49-.421l.005-.073v-2.473H11.01c-.627 0-1.183-.307-1.524-.78h-3.74v-1h3.388l-.003-.099-.001-.879H5.748v-1H9.13v-.978H5.748v-1H9.13v-1.78zm1.519 7.714v1H5.748v-1h4.902zm8.372-12.264H11.11c-.248 0-.454.183-.49.422l-.005.073v9.494c0 .249.183.454.422.49l.073.005h7.912c.248 0 .454-.183.49-.421l.004-.074V4.702c0-.273-.22-.495-.494-.495zm-2.24 7.121v1H11.88v-1h4.902zm-.49-1.978v1H11.88v-1h4.411zm1.47-1.978v1H11.88v-1h5.882zm.245-1.978v1H11.88v-1h6.127z"/>
    </defs>
    <g fill="none" fill-rule="evenodd">
        <g>
            <g>
                <g>
                    <g transform="translate(-10 -204) translate(0 150) translate(0 44) translate(10 10)">
                        <mask id="mmes476j2b" fill="#1187d4">
                            <use xlink:href="#inczkca1pa"/>
                        </mask>
                        <use fill="#1187d4" xlink:href="#inczkca1pa"/>
                        <g fill="#1187d4" mask="url(#mmes476j2b)">
                            <path d="M0 0H24V24H0z"/>
                        </g>
                    </g>
                </g>
            </g>
        </g>
    </g>
</svg>
