<?xml version="1.0" encoding="UTF-8"?>
<svg width="32px" height="32px" viewBox="0 0 32 32" version="1.1" xmlns="http://www.w3.org/2000/svg" xmlns:xlink="http://www.w3.org/1999/xlink">
    <!-- Generator: Sketch 53.2 (72643) - https://sketchapp.com -->
    <title>ui / cancel</title>
    <desc>Created with Sketch.</desc>
    <defs>
        <path d="M16.9558441,10.9558441 C17.3864504,10.9558441 17.751318,11.2588267 17.8398312,11.6841909 L17.8537868,11.7708419 L17.8583339,11.8583505 L17.8577322,16.0528197 L22.0533543,16.0533543 C22.4931467,16.0533543 22.8594653,16.3679327 22.9395709,16.78435 L22.9517128,16.8689283 L22.9558441,16.9558441 C22.9558441,17.3864504 22.6528616,17.751318 22.2274974,17.8398312 L22.1408463,17.8537868 L22.0533378,17.8583339 L17.8577322,17.8577992 L17.8583339,22.0533543 C17.8583339,22.4931467 17.5437555,22.8594653 17.1273382,22.9395709 L17.0427599,22.9517128 L16.9558441,22.9558441 C16.5252379,22.9558441 16.1603702,22.6528616 16.071857,22.2274974 L16.0579015,22.1408463 L16.0533543,22.0533709 L16.0527527,17.8577992 L11.8583339,17.8583339 C11.4185415,17.8583339 11.0522229,17.5437555 10.9721174,17.1273382 L10.9599755,17.0427599 L10.9558441,16.9558441 C10.9558441,16.5252379 11.2588267,16.1603702 11.6841909,16.071857 L11.7708419,16.0579015 L11.8583173,16.0533543 L16.0527527,16.0528197 L16.0533543,11.8583339 C16.0533543,11.4185415 16.3679327,11.0522229 16.78435,10.9721174 L16.8689283,10.9599755 L16.9558441,10.9558441 Z" id="path-1"></path>
    </defs>
    <g id="ui-/-cancel" stroke="none" stroke-width="1" fill="none" fill-rule="evenodd">
        <g id="Group" transform="translate(-0.970563, -0.970563)">
            <path d="M16.9705627,4.97056275 C23.5979797,4.97056275 28.9705627,10.3431458 28.9705627,16.9705627 C28.9705627,23.5979797 23.5979797,28.9705627 16.9705627,28.9705627 C10.3431458,28.9705627 4.97056275,23.5979797 4.97056275,16.9705627 C4.97056275,10.3431458 10.3431458,4.97056275 16.9705627,4.97056275 Z" id="Path" fill="#EAEBEF" fill-rule="nonzero" transform="translate(16.970563, 16.970563) rotate(-315.000000) translate(-16.970563, -16.970563) "></path>
            <mask id="mask-2" fill="white">
                <use xlink:href="#path-1"></use>
            </mask>
            <use id="Path" fill="#7B7F8E" fill-rule="nonzero" transform="translate(16.955844, 16.955844) rotate(-315.000000) translate(-16.955844, -16.955844) " xlink:href="#path-1"></use>
        </g>
    </g>
</svg>