<?xml version="1.0" encoding="UTF-8"?>
<svg width="40px" height="40px" viewBox="0 0 40 40" version="1.1" xmlns="http://www.w3.org/2000/svg" xmlns:xlink="http://www.w3.org/1999/xlink">
    <title>UI / icon / searach Copy</title>
    <defs>
        <path d="M17,6 C23.627417,6 29,11.372583 29,18 C29,20.5683438 28.193135,22.9482342 26.8190601,24.9000163 L34.2728105,30.6681166 C35.1150028,31.319986 35.2445954,32.5006823 34.5622637,33.3052754 C33.9254207,34.056229 32.8063837,34.2141423 31.9752756,33.7018658 L31.8018687,33.5818061 L24.13641,27.6483164 C22.1418307,29.126054 19.6729758,30 17,30 C10.372583,30 5,24.627417 5,18 C5,11.372583 10.372583,6 17,6 Z M17,9.87096774 C12.5104595,9.87096774 8.87096774,13.5104595 8.87096774,18 C8.87096774,22.4895405 12.5104595,26.1290323 17,26.1290323 C21.4895405,26.1290323 25.1290323,22.4895405 25.1290323,18 C25.1290323,13.5104595 21.4895405,9.87096774 17,9.87096774 Z" id="path-1"></path>
    </defs>
    <g id="UI-/-icon-/-searach-Copy" stroke="none" stroke-width="1" fill="none" fill-rule="evenodd">
        <mask id="mask-2" fill="white">
            <use xlink:href="#path-1"></use>
        </mask>
        <use id="Combined-Shape" fill="#000000" fill-rule="nonzero" xlink:href="#path-1"></use>
    </g>
</svg>