<svg width="13" height="13" viewBox="0 0 13 13" fill="none" xmlns="http://www.w3.org/2000/svg">
    <path fill-rule="evenodd" clip-rule="evenodd" d="M5.58855 1.76042C5.58855 1.65974 5.67017 1.57812 5.77084 1.57812H7.22918C7.32985 1.57812 7.41147 1.65974 7.41147 1.76042V2.67188H5.58855V1.76042ZM4.4948 2.67188V1.76042C4.4948 1.05568 5.0661 0.484375 5.77084 0.484375H7.22918C7.93391 0.484375 8.50522 1.05568 8.50522 1.76042V2.67188H11.6042C11.9062 2.67188 12.1511 2.91672 12.1511 3.21875C12.1511 3.52078 11.9062 3.76562 11.6042 3.76562H1.39584C1.09381 3.76562 0.848969 3.52078 0.848969 3.21875C0.848969 2.91672 1.09381 2.67188 1.39584 2.67188H4.4948ZM2.04052 4.13687C2.33892 4.09016 2.61868 4.2942 2.66539 4.59259L3.73433 11.422H9.26585L10.3348 4.59259C10.3815 4.2942 10.6613 4.09016 10.9597 4.13687C11.2581 4.18357 11.4621 4.46333 11.4154 4.76173L10.2741 12.0534C10.2324 12.3195 10.0032 12.5157 9.73378 12.5157H3.26639C2.99701 12.5157 2.76775 12.3195 2.7261 12.0534L1.58479 4.76173C1.53809 4.46333 1.74212 4.18357 2.04052 4.13687ZM5.40626 6.13542C5.40626 5.93406 5.24303 5.77083 5.04168 5.77083C4.84032 5.77083 4.67709 5.93406 4.67709 6.13542V8.32292C4.67709 8.52427 4.84032 8.6875 5.04168 8.6875C5.24303 8.6875 5.40626 8.52427 5.40626 8.32292V6.13542ZM7.95834 5.77083C8.1597 5.77083 8.32293 5.93406 8.32293 6.13542V8.32292C8.32293 8.52427 8.1597 8.6875 7.95834 8.6875C7.75699 8.6875 7.59376 8.52427 7.59376 8.32292V6.13542C7.59376 5.93406 7.75699 5.77083 7.95834 5.77083Z" fill="#1187d4"/>
</svg>
