<?xml version="1.0" standalone="no"?>
<!DOCTYPE svg PUBLIC "-//W3C//DTD SVG 20010904//EN"
 "http://www.w3.org/TR/2001/REC-SVG-20010904/DTD/svg10.dtd">
<svg version="1.0" xmlns="http://www.w3.org/2000/svg"
 width="512.000000pt" height="512.000000pt" viewBox="0 0 512.000000 512.000000"
 preserveAspectRatio="xMidYMid meet">

<g transform="translate(0.000000,512.000000) scale(0.100000,-0.100000)"
fill="#000000" stroke="none">
<path d="M1195 4424 c-11 -2 -45 -9 -75 -15 -399 -76 -730 -368 -860 -758 -78
-233 -203 -1118 -239 -1696 -34 -534 -28 -614 61 -795 45 -92 63 -116 147
-201 167 -168 348 -257 536 -266 124 -6 196 11 313 73 156 82 279 194 662 603
153 164 241 241 317 277 l53 25 463 -3 463 -3 59 -35 c42 -24 116 -92 245
-224 512 -526 581 -587 743 -661 104 -47 163 -58 276 -52 151 8 290 64 440
178 105 79 191 181 247 294 67 136 77 200 70 445 -18 582 -90 1222 -207 1843
-82 436 -356 770 -747 911 -145 52 -204 61 -392 61 -201 0 -224 -5 -451 -98
-271 -112 -362 -127 -759 -127 -397 0 -486 15 -758 126 -218 90 -244 96 -427
100 -88 1 -169 1 -180 -2z m309 -754 c14 -5 43 -26 65 -46 58 -52 71 -103 71
-281 l0 -143 160 0 c181 0 210 -8 268 -74 70 -79 67 -187 -6 -268 -56 -62 -79
-68 -262 -68 l-160 0 0 -143 c0 -174 -13 -226 -68 -280 -95 -93 -239 -78 -317
31 -30 44 -30 44 -35 215 l-5 172 -170 5 c-194 6 -217 13 -270 89 -27 38 -30
51 -30 116 0 65 3 78 30 116 17 23 50 53 74 66 41 21 56 23 207 23 l162 0 4
174 3 174 30 43 c40 56 103 89 171 89 29 0 64 -4 78 -10z m2718 -23 c96 -56
150 -147 150 -256 2 -260 -313 -396 -497 -213 -102 102 -120 254 -42 369 68
99 140 135 263 130 66 -3 89 -8 126 -30z m-505 -783 c224 -107 214 -435 -16
-537 -138 -61 -313 8 -382 149 -33 68 -33 179 -1 245 75 153 247 215 399 143z"/>
</g>
</svg>
